# xmcd
#
# Track frame offsets:
#	150
#	18486
#	36352
#	52968
#	71196
#	103293
#	115628
#	138108
#	153034
#	168436
#	194142
#	212057
#
# Disc length: 3057 seconds
#
# Revision: 1
# Processed by: cddbd v1.5.2PL0 Copyright (c) Steve Scherf et al.
# Submitted via: audiograbber 1.83.01
#
DISCID=a90bef0c
DTITLE=Carolyn Wonderland - Peace Meal
DYEAR=2011
DGENRE=Blues
TTITLE0=What Good Can Drinking Do
TTITLE1=Victory of Flying
TTITLE2=Only God Knows When
TTITLE3=St. Marks
TTITLE4=Golden Stairs
TTITLE5=Dust My Broom
TTITLE6=I Can Tell
TTITLE7=Usurper
TTITLE8=No Exception
TTITLE9=Meet Me in the Morning
TTITLE10=Two Trains
TTITLE11=Shine On
EXTD=
EXTT0=
EXTT1=
EXTT2=
EXTT3=
EXTT4=
EXTT5=
EXTT6=
EXTT7=
EXTT8=
EXTT9=
EXTT10=
EXTT11=
PLAYORDER=
